<!DOCTYPE svg PUBLIC "-//W3C//DTD SVG 20010904//EN" "http://www.w3.org/TR/2001/REC-SVG-20010904/DTD/svg10.dtd">
<svg version="1.0" xmlns="http://www.w3.org/2000/svg" width="1000px" height="300px" viewBox="0 0 10000 3000" preserveAspectRatio="xMidYMid meet">
<g id="layer101" fill="#000000" stroke="none">
 <path d="M570 2710 c-16 -30 -12 -342 6 -420 55 -239 141 -406 295 -573 89 -97 160 -154 362 -291 355 -239 437 -340 430 -529 -3 -87 -30 -155 -82 -207 -52 -52 -103 -74 -216 -90 -89 -12 -425 -13 -445 0 -13 8 -16 74 -20 463 l-5 454 -90 98 c-49 55 -108 119 -130 143 -27 28 -53 46 -77 51 l-38 9 0 -758 c0 -693 1 -760 16 -775 15 -15 57 -16 448 -13 406 4 436 6 511 26 245 67 404 225 466 463 27 105 29 246 5 338 -44 170 -212 360 -456 515 -106 68 -282 192 -353 250 -87 71 -173 171 -211 245 -28 53 -66 190 -66 236 0 35 4 44 25 53 35 16 792 17 867 1 263 -56 367 -345 186 -521 -27 -26 -64 -55 -83 -64 -19 -9 -46 -27 -60 -40 -15 -13 -31 -21 -37 -18 -6 4 -8 2 -5 -3 7 -10 -15 -34 -43 -47 -8 -4 -4 2 9 13 13 12 19 21 14 21 -15 0 -43 -35 -43 -53 0 -9 -5 -16 -11 -14 -32 7 -11 -24 48 -68 36 -27 88 -69 115 -92 62 -54 83 -54 189 -1 159 78 295 246 334 409 19 82 19 236 0 317 -52 221 -264 444 -445 468 -28 4 -50 10 -50 15 0 5 -298 9 -675 9 -665 0 -674 0 -685 -20z"/>
 <path d="M3730 1996 c-195 -55 -320 -226 -320 -440 0 -133 46 -242 138 -328 88 -82 183 -118 317 -118 142 0 262 49 298 122 16 33 17 40 3 72 -27 65 -103 84 -179 44 -32 -17 -59 -22 -113 -23 -61 0 -77 4 -119 30 -70 43 -100 104 -100 204 1 99 36 169 104 209 61 36 164 38 228 4 57 -30 113 -29 151 3 84 71 20 175 -134 220 -62 18 -210 19 -274 1z"/>
 <path d="M4586 1989 c-189 -65 -297 -220 -299 -429 -2 -262 186 -450 450 -450 149 0 254 41 342 135 81 86 121 189 121 315 0 209 -130 385 -324 436 -77 21 -219 17 -290 -7z m273 -222 c125 -83 126 -331 1 -413 -73 -48 -185 -42 -251 13 -54 46 -74 97 -73 193 0 119 37 185 124 225 52 23 150 14 199 -18z"/>
 <path d="M5423 1995 c-18 -8 -42 -29 -53 -47 -19 -31 -20 -50 -20 -381 0 -383 3 -402 59 -431 62 -33 136 -12 164 46 8 18 13 36 10 41 -3 4 18 -9 46 -31 72 -54 158 -82 250 -82 104 0 147 15 207 75 71 71 74 87 74 443 0 288 -1 300 -21 326 -52 66 -125 70 -178 10 l-31 -35 -1 -242 c-1 -263 -7 -307 -51 -340 -57 -42 -171 -32 -246 23 l-42 30 0 258 c0 240 -1 259 -20 290 -19 31 -72 63 -102 62 -7 -1 -28 -7 -45 -15z"/>
 <path d="M6434 1991 c-66 -40 -64 -28 -64 -429 0 -398 0 -396 61 -428 49 -25 97 -18 135 20 19 19 34 43 34 55 0 19 4 18 46 -14 91 -69 158 -89 276 -83 96 5 148 27 196 82 57 66 63 108 60 444 l-3 300 -24 26 c-38 40 -90 52 -134 31 -70 -33 -71 -39 -77 -335 -3 -146 -9 -273 -14 -282 -17 -36 -58 -53 -131 -53 -75 1 -118 16 -167 63 l-28 26 0 261 0 262 -25 27 c-44 48 -92 57 -141 27z"/>
 <path d="M7660 1996 c-147 -41 -254 -142 -301 -283 -18 -54 -21 -82 -17 -171 3 -95 7 -115 35 -175 58 -123 169 -215 296 -248 27 -6 85 -10 136 -7 75 3 99 9 155 37 116 57 195 159 231 296 22 88 20 110 -19 153 l-34 37 -281 3 -280 3 11 32 c41 123 190 180 333 127 33 -12 77 -24 97 -27 33 -4 42 -1 73 30 21 21 35 45 35 60 0 56 -80 110 -198 136 -69 14 -214 13 -272 -3z m320 -536 c0 -19 -30 -84 -48 -104 -42 -47 -143 -69 -221 -46 -55 15 -105 71 -125 138 l-7 22 200 0 c132 0 201 -4 201 -10z"/>
 <path d="M8609 1987 c-199 -68 -311 -245 -296 -467 12 -174 117 -320 275 -381 78 -30 235 -38 313 -15 163 48 228 164 125 227 -41 25 -87 24 -139 -3 -64 -34 -167 -32 -228 4 -125 74 -141 290 -29 392 67 61 160 72 248 31 79 -36 125 -34 169 10 31 31 35 40 30 72 -7 42 -27 67 -83 99 -101 59 -264 72 -385 31z"/>
 <path d="M9399 1982 c-43 -22 -59 -38 -81 -81 l-28 -53 0 -257 0 -256 -39 0 c-49 -1 -89 -27 -107 -71 -28 -67 24 -134 103 -134 l43 0 0 -86 c0 -84 1 -87 34 -120 29 -29 41 -34 82 -34 86 1 114 40 114 159 l0 81 59 0 c49 0 65 4 89 25 39 33 48 74 27 118 -21 44 -56 62 -122 62 l-54 0 3 213 c3 211 3 214 27 233 13 11 39 19 58 19 121 0 157 150 47 196 -20 8 -68 14 -118 14 -72 0 -91 -4 -137 -28z"/>
 <path d="M2102 1243 c-7 -10 -10 -12 -7 -5 3 6 1 12 -4 12 -16 0 -15 -4 28 -89 21 -43 48 -119 61 -169 l22 -91 299 0 c164 0 299 2 299 4 0 7 -139 273 -159 305 -8 14 -16 30 -16 35 0 6 -94 11 -255 13 -234 2 -256 1 -268 -15z"/>
 <path d="M2123 583 c17 -16 -156 -226 -214 -260 -16 -10 -29 -25 -29 -35 0 -17 33 -18 646 -18 434 0 643 3 639 10 -4 6 -11 8 -16 5 -5 -3 -6 0 -3 8 6 17 -55 144 -93 195 -14 18 -22 36 -19 39 8 8 -22 63 -35 63 -6 0 0 -15 12 -32 l22 -33 -35 33 -34 32 -423 0 c-233 -1 -421 -3 -418 -7z"/>
 </g>
<g id="layer102" fill="#ff0000" stroke="none">
 <path d="M7660 1996 c-147 -41 -254 -142 -301 -283 -18 -54 -21 -82 -17 -171 3 -95 7 -115 35 -175 58 -123 169 -215 296 -248 27 -6 85 -10 136 -7 75 3 99 9 155 37 116 57 195 159 231 296 22 88 20 110 -19 153 l-34 37 -281 3 -280 3 11 32 c41 123 190 180 333 127 33 -12 77 -24 97 -27 33 -4 42 -1 73 30 21 21 35 45 35 60 0 56 -80 110 -198 136 -69 14 -214 13 -272 -3z m320 -536 c0 -19 -30 -84 -48 -104 -42 -47 -143 -69 -221 -46 -55 15 -105 71 -125 138 l-7 22 200 0 c132 0 201 -4 201 -10z"/>
 </g>

</svg>